# xmcd
#
# Track frame offsets:
#	150
#	10492
#	20077
#	29895
#	38367
#	47647
#	57042
#	67222
#	77715
#	88060
#	99415
#	109247
#	120250
#	129702
#	139437
#	150857
#	160927
#	172305
#	181715
#	191135
#	201590
#	212477
#	221500
#	230810
#
# Disc length: 3191 seconds
#
# Revision: 1
# Processed by: cddbd v1.4PL0 Copyright (c) Steve Scherf et al.
# Submitted via: audiograbber 1.82.02
#
DISCID=5e0c7518
DTITLE=Terry Fell - Truck Driving Man
DYEAR=1993
DGENRE=Country
TTITLE0=Truck Driving Man
TTITLE1=Caaveman
TTITLE2=Don't Drop It
TTITLE3=Play The Music Louder
TTITLE4=I'm Hot To Trot
TTITLE5=Mississippi River Shuffle
TTITLE6=Get Aboard My Wagon
TTITLE7=Yuo Don't Give A Hang About Me
TTITLE8=He's In Love With You
TTITLE9=I Believe My Heart
TTITLE10=What Am I Worth
TTITLE11=Over And Over
TTITLE12=I Nearly Go Crazy
TTITLE13=That's The Way The Big Ball Bounces
TTITLE14=Don't Do It Joe
TTITLE15=Consolation Prize
TTITLE16=Let's Stay Together Till After Christmas
TTITLE17=(We Wanna See) Santa Do The Mambo
TTITLE18=Wham! Bam! Hot Ziggity Zam
TTITLE19=If I didn't Have You
TTITLE20=That's What I Like
TTITLE21=Fa-So-La
TTITLE22=I Can Hear You Cluckin'
TTITLE23=What's Good For The Goose
EXTD=
EXTT0=
EXTT1=
EXTT2=
EXTT3=
EXTT4=
EXTT5=
EXTT6=
EXTT7=
EXTT8=
EXTT9=
EXTT10=
EXTT11=
EXTT12=
EXTT13=
EXTT14=
EXTT15=
EXTT16=
EXTT17=
EXTT18=
EXTT19=
EXTT20=
EXTT21=
EXTT22=
EXTT23=
PLAYORDER=
